<svg class="diagram-root" style="background: #f5f6f6" xmlns="http://www.w3.org/2000/svg" xmlns:xlink="http://www.w3.org/1999/xlink"><style>.diagram-root { font-family: "Helvetica Neue", sans-serif; font-size: 12px; } .t { overflow: visible; } .t-bg { y: 40; fill: #fff;   } .th { fill: #005aa0;   } .tht { fill: #fff; font-size: 14px;  } .tf { fill: #323c46; overflow: visible; } .tf.pk { fill: #005aa0; font-weight: bold; } .tf.fk { font-weight: bold; } .ty { fill: #adb1b5; font-weight: normal; text-anchor: end; } .r { fill: transparent; stroke: #c3c3c3; stroke-width: 1; } .l { stroke: 1; } .i { fill: #c2c7ce; stroke: #c2c7ce; } .i.ix { fill: #afb3b6; stroke: #000; } .fa { fill: transparent; overflow: visible; } .fa .bg.hover { fill: #f7f7f7; } .c { cy: 12; r: 4; stroke: #d2d2dc; fill: #d2d2dc; } .hr { fill: transparent; stroke: #323c46; stroke-opacity: 0.035; stroke-width: 13; } .dc { stroke: #fa5a3c; fill: #fa5a3c; } .x { stroke: white; stroke-width: 1; } .hl .th { fill: #1b9bff; } .hl .tht {  } .fhl .bg { fill: #e7f4ff; } .fhls .bg {  } .r.hl { stroke: #1b9bff; } .dim { opacity: 0.25; }</style><g class="drawing-wrapper" transform="translate(76.23000000000002, 137.14) scale(1,1)"><g class="rs"><path d="M 101.79 -50.14 m -1, 0 a 1,1 0 1,0 2,0 a 1,1 0 1,0 -2,0 M 101.79 -50.14 m -0.5, 0 a 0.5,0.5 0 1,0 1,0 a 0.5,0.5 0 1,0 -1,0  M101.79 -50.14 L101.79 -50.14 113.79 -50.14 M 101.79 -44.14 m -1, 0 a 1,1 0 1,0 2,0 a 1,1 0 1,0 -2,0 M 101.79 -44.14 m -0.5, 0 a 0.5,0.5 0 1,0 1,0 a 0.5,0.5 0 1,0 -1,0  M101.79 -44.14 L101.79 -44.14 108.79 -50.14 101.79 -56.14 M 101.79 -56.14 m -1, 0 a 1,1 0 1,0 2,0 a 1,1 0 1,0 -2,0 M 101.79 -56.14 m -0.5, 0 a 0.5,0.5 0 1,0 1,0 a 0.5,0.5 0 1,0 -1,0  M113.79 -50.14 Q 177.01 -50.14, 240.22 -45.13 T 366.65 -40.120000000000005 M 378.65 -40.120000000000005 m -1, 0 a 1,1 0 1,0 2,0 a 1,1 0 1,0 -2,0 M 378.65 -40.120000000000005 m -0.5, 0 a 0.5,0.5 0 1,0 1,0 a 0.5,0.5 0 1,0 -1,0  M378.65 -40.120000000000005 L378.65 -40.120000000000005 366.65 -40.120000000000005 M372.65 -34.120000000000005 L372.65 -34.120000000000005 372.65 -46.120000000000005" id="h2543177687" class="r"></path><path d="M 101.79 -25.14 m -1, 0 a 1,1 0 1,0 2,0 a 1,1 0 1,0 -2,0 M 101.79 -25.14 m -0.5, 0 a 0.5,0.5 0 1,0 1,0 a 0.5,0.5 0 1,0 -1,0  M101.79 -25.14 L101.79 -25.14 113.79 -25.14 M 101.79 -19.14 m -1, 0 a 1,1 0 1,0 2,0 a 1,1 0 1,0 -2,0 M 101.79 -19.14 m -0.5, 0 a 0.5,0.5 0 1,0 1,0 a 0.5,0.5 0 1,0 -1,0  M101.79 -19.14 L101.79 -19.14 108.79 -25.14 101.79 -31.14 M 101.79 -31.14 m -1, 0 a 1,1 0 1,0 2,0 a 1,1 0 1,0 -2,0 M 101.79 -31.14 m -0.5, 0 a 0.5,0.5 0 1,0 1,0 a 0.5,0.5 0 1,0 -1,0  M113.79 -25.14 Q 206.95 -25.14, 300.11 198.25 T 486.43 421.64 M 498.43 421.64 m -1, 0 a 1,1 0 1,0 2,0 a 1,1 0 1,0 -2,0 M 498.43 421.64 m -0.5, 0 a 0.5,0.5 0 1,0 1,0 a 0.5,0.5 0 1,0 -1,0  M498.43 421.64 L498.43 421.64 486.43 421.64 M492.43 427.64 L492.43 427.64 492.43 415.64" id="h1537058300" class="r"></path><path d="M 480.44 97.82 m -1, 0 a 1,1 0 1,0 2,0 a 1,1 0 1,0 -2,0 M 480.44 97.82 m -0.5, 0 a 0.5,0.5 0 1,0 1,0 a 0.5,0.5 0 1,0 -1,0  M480.44 97.82 L480.44 97.82 468.44 97.82 M 480.44 103.82 m -1, 0 a 1,1 0 1,0 2,0 a 1,1 0 1,0 -2,0 M 480.44 103.82 m -0.5, 0 a 0.5,0.5 0 1,0 1,0 a 0.5,0.5 0 1,0 -1,0  M480.44 103.82 L480.44 103.82 473.44 97.82 480.44 91.82 M 480.44 91.82 m -1, 0 a 1,1 0 1,0 2,0 a 1,1 0 1,0 -2,0 M 480.44 91.82 m -0.5, 0 a 0.5,0.5 0 1,0 1,0 a 0.5,0.5 0 1,0 -1,0  M468.44 97.82 Q 379.78 97.82, 291.12 23.84 T 113.79 -50.14 M 101.79 -50.14 m -1, 0 a 1,1 0 1,0 2,0 a 1,1 0 1,0 -2,0 M 101.79 -50.14 m -0.5, 0 a 0.5,0.5 0 1,0 1,0 a 0.5,0.5 0 1,0 -1,0  M101.79 -50.14 L101.79 -50.14 113.79 -50.14 M107.79 -44.14 L107.79 -44.14 107.79 -56.14" id="h1139284389" class="r"></path><path d="M 480.44 122.82 m -1, 0 a 1,1 0 1,0 2,0 a 1,1 0 1,0 -2,0 M 480.44 122.82 m -0.5, 0 a 0.5,0.5 0 1,0 1,0 a 0.5,0.5 0 1,0 -1,0  M480.44 122.82 L480.44 122.82 468.44 122.82 M 480.44 128.82 m -1, 0 a 1,1 0 1,0 2,0 a 1,1 0 1,0 -2,0 M 480.44 128.82 m -0.5, 0 a 0.5,0.5 0 1,0 1,0 a 0.5,0.5 0 1,0 -1,0  M480.44 128.82 L480.44 128.82 473.44 122.82 480.44 116.82 M 480.44 116.82 m -1, 0 a 1,1 0 1,0 2,0 a 1,1 0 1,0 -2,0 M 480.44 116.82 m -0.5, 0 a 0.5,0.5 0 1,0 1,0 a 0.5,0.5 0 1,0 -1,0  M468.44 122.82 Q 378.12 122.82, 287.8 195.35 T 107.16 267.88 M 95.16 267.88 m -1, 0 a 1,1 0 1,0 2,0 a 1,1 0 1,0 -2,0 M 95.16 267.88 m -0.5, 0 a 0.5,0.5 0 1,0 1,0 a 0.5,0.5 0 1,0 -1,0  M95.16 267.88 L95.16 267.88 107.16 267.88 M101.16 273.88 L101.16 273.88 101.16 261.88" id="h1607168654" class="r"></path><path d="M 481.67 266.03999999999996 m -1, 0 a 1,1 0 1,0 2,0 a 1,1 0 1,0 -2,0 M 481.67 266.03999999999996 m -0.5, 0 a 0.5,0.5 0 1,0 1,0 a 0.5,0.5 0 1,0 -1,0  M481.67 266.03999999999996 L481.67 266.03999999999996 469.67 266.03999999999996 M 481.67 272.03999999999996 m -1, 0 a 1,1 0 1,0 2,0 a 1,1 0 1,0 -2,0 M 481.67 272.03999999999996 m -0.5, 0 a 0.5,0.5 0 1,0 1,0 a 0.5,0.5 0 1,0 -1,0  M481.67 272.03999999999996 L481.67 272.03999999999996 474.67 266.03999999999996 481.67 260.03999999999996 M 481.67 260.03999999999996 m -1, 0 a 1,1 0 1,0 2,0 a 1,1 0 1,0 -2,0 M 481.67 260.03999999999996 m -0.5, 0 a 0.5,0.5 0 1,0 1,0 a 0.5,0.5 0 1,0 -1,0  M469.67 266.03999999999996 Q 379.05 266.03999999999996, 288.42 266.96 T 107.16 267.88 M 95.16 267.88 m -1, 0 a 1,1 0 1,0 2,0 a 1,1 0 1,0 -2,0 M 95.16 267.88 m -0.5, 0 a 0.5,0.5 0 1,0 1,0 a 0.5,0.5 0 1,0 -1,0  M95.16 267.88 L95.16 267.88 107.16 267.88 M101.16 273.88 L101.16 273.88 101.16 261.88" id="h1397587031" class="r"></path><path d="M 481.67 291.03999999999996 m -1, 0 a 1,1 0 1,0 2,0 a 1,1 0 1,0 -2,0 M 481.67 291.03999999999996 m -0.5, 0 a 0.5,0.5 0 1,0 1,0 a 0.5,0.5 0 1,0 -1,0  M481.67 291.03999999999996 L481.67 291.03999999999996 469.67 291.03999999999996 M 481.67 297.03999999999996 m -1, 0 a 1,1 0 1,0 2,0 a 1,1 0 1,0 -2,0 M 481.67 297.03999999999996 m -0.5, 0 a 0.5,0.5 0 1,0 1,0 a 0.5,0.5 0 1,0 -1,0  M481.67 297.03999999999996 L481.67 297.03999999999996 474.67 291.03999999999996 481.67 285.03999999999996 M 481.67 285.03999999999996 m -1, 0 a 1,1 0 1,0 2,0 a 1,1 0 1,0 -2,0 M 481.67 285.03999999999996 m -0.5, 0 a 0.5,0.5 0 1,0 1,0 a 0.5,0.5 0 1,0 -1,0  M469.67 291.03999999999996 Q 380.7 291.03999999999996, 291.73 120.45 T 113.79 -50.14 M 101.79 -50.14 m -1, 0 a 1,1 0 1,0 2,0 a 1,1 0 1,0 -2,0 M 101.79 -50.14 m -0.5, 0 a 0.5,0.5 0 1,0 1,0 a 0.5,0.5 0 1,0 -1,0  M101.79 -50.14 L101.79 -50.14 113.79 -50.14 M107.79 -44.14 L107.79 -44.14 107.79 -56.14" id="h2286254435" class="r"></path></g><g class="hrs"></g><g class="ts"><svg width="150.72" height="225" x="-48.93" y="-107.14" id="h1639608377" class="t"><rect height="40" width="150.72" class="th"></rect><text x="13" y="25" class="tht">employees</text><rect height="185" width="150.72" class="t-bg"></rect><text x="13" y="61" class="tf pk">emp_no<tspan x="137.72" class="ty">int</tspan></text><path d="M7,14A2,2 0 0,1 5,12A2,2 0 0,1 7,10A2,2 0 0,1 9,12A2,2 0 0,1 7,14M12.65,10C11.83,7.67 9.61,6 7, 6A6, 6 0 0, 0 1, 12A6, 6 0 0, 0 7, 18C9.61, 18 11.83, 16.33 12.65, 14H17V18H21V14H23V10H12.65Z" class="i pk" transform="translate(105.046171875, 48) scale(0.65)"></path><text x="13" y="86" class="tf fk">emp_title_id<tspan x="137.72" class="ty">varchar</tspan></text><text x="13" y="111" class="tf">birth_date<tspan x="137.72" class="ty">date</tspan></text><text x="13" y="136" class="tf">first_name<tspan x="137.72" class="ty">varchar</tspan></text><text x="13" y="161" class="tf">last_name<tspan x="137.72" class="ty">varchar</tspan></text><text x="13" y="186" class="tf">sex<tspan x="137.72" class="ty">char(1)</tspan></text><text x="13" y="211" class="tf">hire_date<tspan x="137.72" class="ty">date</tspan></text></svg><svg width="145.38" height="125" x="378.65" y="-97.12" id="h2472833127" class="t"><rect height="40" width="145.38" class="th"></rect><text x="13" y="25" class="tht">salaries</text><rect height="85" width="145.38" class="t-bg"></rect><text x="13" y="61" class="tf fk">emp_no<tspan x="132.38" class="ty">int</tspan></text><text x="13" y="86" class="tf">salary<tspan x="132.38" class="ty">int</tspan></text><text x="13" y="111" class="tf">pk(emp_no,<tspan x="132.38" class="ty">salary)</tspan></text></svg><svg width="149.39" height="100" x="-54.23" y="210.88" id="h475896179" class="t"><rect height="40" width="149.39" class="th"></rect><text x="13" y="25" class="tht">departments</text><rect height="60" width="149.39" class="t-bg"></rect><text x="13" y="61" class="tf pk">dept_no<tspan x="136.39" class="ty">varchar</tspan></text><path d="M7,14A2,2 0 0,1 5,12A2,2 0 0,1 7,10A2,2 0 0,1 9,12A2,2 0 0,1 7,14M12.65,10C11.83,7.67 9.61,6 7, 6A6, 6 0 0, 0 1, 12A6, 6 0 0, 0 7, 18C9.61, 18 11.83, 16.33 12.65, 14H17V18H21V14H23V10H12.65Z" class="i pk" transform="translate(76.37632812499999, 48) scale(0.65)"></path><text x="13" y="86" class="tf">dept_name<tspan x="136.39" class="ty">varchar</tspan></text></svg><svg width="156.74" height="125" x="480.44" y="40.82" id="h1090417462" class="t"><rect height="40" width="156.74" class="th"></rect><text x="13" y="25" class="tht">dept_emp</text><rect height="85" width="156.74" class="t-bg"></rect><text x="13" y="61" class="tf fk">emp_no<tspan x="143.74" class="ty">int</tspan></text><text x="13" y="86" class="tf fk">dept_no<tspan x="143.74" class="ty">varchar</tspan></text><text x="13" y="111" class="tf">pk(emp_no,<tspan x="143.74" class="ty">dept_no)</tspan></text></svg><svg width="156.74" height="125" x="481.67" y="209.04" id="h1676682957" class="t"><rect height="40" width="156.74" class="th"></rect><text x="13" y="25" class="tht">dept_manager</text><rect height="85" width="156.74" class="t-bg"></rect><text x="13" y="61" class="tf fk">dept_no<tspan x="143.74" class="ty">varchar</tspan></text><text x="13" y="86" class="tf fk">emp_no<tspan x="143.74" class="ty">int</tspan></text><text x="13" y="111" class="tf">pk(dept_no,<tspan x="143.74" class="ty">emp_no)</tspan></text></svg><svg width="140.7" height="100" x="498.43" y="364.64" id="h311790747" class="t"><rect height="40" width="140.7" class="th"></rect><text x="13" y="25" class="tht">titles</text><rect height="60" width="140.7" class="t-bg"></rect><text x="13" y="61" class="tf pk">title_id<tspan x="127.69999999999999" class="ty">varchar</tspan></text><path d="M7,14A2,2 0 0,1 5,12A2,2 0 0,1 7,10A2,2 0 0,1 9,12A2,2 0 0,1 7,14M12.65,10C11.83,7.67 9.61,6 7, 6A6, 6 0 0, 0 1, 12A6, 6 0 0, 0 7, 18C9.61, 18 11.83, 16.33 12.65, 14H17V18H21V14H23V10H12.65Z" class="i pk" transform="translate(67.68632812499999, 48) scale(0.65)"></path><text x="13" y="86" class="tf">title<tspan x="127.69999999999999" class="ty">varchar</tspan></text></svg></g></g><text class="qdbd-link" x="10" y="20">www.quickdatabasediagrams.com</text></svg>